<?xml version="1.0" encoding="iso-8859-1"?>
<!-- Generator: Adobe Illustrator 19.0.0, SVG Export Plug-In . SVG Version: 6.00 Build 0)  -->
<svg version="1.1" id="Capa_1" xmlns="http://www.w3.org/2000/svg" xmlns:xlink="http://www.w3.org/1999/xlink" x="0px" y="0px"
	 viewBox="0 0 512 512" style="enable-background:new 0 0 512 512;" xml:space="preserve">
<path style="fill:#FEE4BB;" d="M17.274,127.65c-4.734,6.736-7.274,14.768-7.274,23V462c0,22.091,17.909,40,40,40h412
	c22.091,0,40-17.909,40-40V150.65c0-8.233-2.54-16.265-7.274-23C494.726,127.65,17.274,127.65,17.274,127.65z"/>
<path style="fill:#FDCF84;" d="M498,138H15L88.013,27c7.49-10.657,19.7-17,32.726-17h270.522c13.026,0,25.236,6.343,32.726,17
	L498,138z"/>
<path style="fill:#BBECFF;" d="M93.4,366.963L93.4,366.963c14.123,0,26.573,7.159,33.921,18.046
	c7.348-10.887,19.798-18.046,33.92-18.046l0,0c11.551,0,21.963,4.809,29.4,12.51v-4.485c0-34.971-28.35-63.321-63.321-63.321l0,0
	c-34.97,0-63.32,28.349-63.32,63.32v4.485C71.437,371.771,81.849,366.963,93.4,366.963z"/>
<polygon style="fill:#FFFFFF;" points="330,256 256.5,213 182,256 182,138 330,138 "/>
<polygon style="fill:#FFF4E2;" points="296.333,10 215.667,10 182,138 330,138 "/>
<path d="M10,243c2.63,0,5.21-1.07,7.069-2.93C18.93,238.21,20,235.63,20,233s-1.07-5.21-2.931-7.07C15.21,224.07,12.63,223,10,223
	s-5.21,1.07-7.07,2.93C1.069,227.79,0,230.37,0,233s1.069,5.21,2.93,7.07S7.37,243,10,243z"/>
<path d="M502.907,121.9L432.168,21.25C422.817,7.944,407.524,0,391.261,0h-94.928h-80.666h-94.928
	c-16.264,0-31.557,7.944-40.907,21.25L9.093,121.899C3.145,130.363,0,140.305,0,150.65V190c0,5.523,4.478,10,10,10s10-4.477,10-10
	v-39.35c0-0.89,0.05-1.772,0.126-2.65H172v108c0,3.572,1.905,6.874,4.999,8.66c1.548,0.893,3.274,1.34,5.001,1.34
	c1.726,0,3.452-0.446,4.999-1.339l69.467-40.095l68.484,40.065c3.092,1.809,6.917,1.826,10.024,0.043
	c3.108-1.783,5.025-5.092,5.025-8.675V148h151.874c0.077,0.878,0.126,1.761,0.126,2.65V462c0,16.542-13.458,30-30,30H50
	c-16.542,0-30-13.458-30-30V272c0-5.523-4.478-10-10-10s-10,4.477-10,10v190c0,27.57,22.43,50,50,50h412c27.57,0,50-22.43,50-50
	V150.65C512,140.305,508.855,130.363,502.907,121.9z M415.805,32.75L482.749,128H337.71L309.303,20h81.958
	C401.019,20,410.194,24.766,415.805,32.75z M288.623,20l28.406,108H194.971l28.406-108H288.623z M96.195,32.75
	c5.61-7.983,14.786-12.75,24.544-12.75h81.958L174.29,128H29.251L96.195,32.75z M320,238.564l-58.45-34.195
	c-3.103-1.815-6.938-1.825-10.049-0.03L192,238.682V148h128V238.564z"/>
<path d="M108.853,437.5c-4.67,0-8.469-3.799-8.469-8.469c0-5.523-4.478-10-10-10s-10,4.477-10,10
	c0,15.698,12.771,28.469,28.469,28.469s28.468-12.771,28.468-28.469v-40.705c5.848-7.156,14.59-11.364,23.921-11.364
	c8.432,0,16.318,3.358,22.207,9.456c2.831,2.933,7.16,3.852,10.939,2.326c3.779-1.527,6.254-5.195,6.254-9.272v-4.485
	c0-40.429-32.892-73.321-73.321-73.321s-73.32,32.892-73.32,73.321v4.485c0,4.077,2.475,7.745,6.254,9.272
	c3.777,1.525,8.107,0.607,10.939-2.326c5.889-6.098,13.775-9.456,22.207-9.456c9.331,0,18.072,4.207,23.92,11.363v40.705
	C117.32,433.701,113.521,437.5,108.853,437.5z M93.4,356.963c-5.979,0-11.789,1.021-17.241,2.984
	c6.508-22.102,26.98-38.28,51.162-38.28c24.181,0,44.653,16.178,51.161,38.28c-5.452-1.962-11.263-2.984-17.241-2.984
	c-12.674,0-24.695,4.696-33.921,12.947C118.095,361.659,106.073,356.963,93.4,356.963z"/>
<path d="M375.75,440.93c-1.86,1.86-2.92,4.44-2.92,7.07s1.06,5.21,2.92,7.07c1.87,1.86,4.439,2.93,7.08,2.93
	c2.63,0,5.199-1.07,7.069-2.93c1.86-1.86,2.92-4.44,2.92-7.07s-1.06-5.21-2.92-7.07c-1.859-1.86-4.439-2.93-7.069-2.93
	C380.189,438,377.62,439.07,375.75,440.93z"/>
<path d="M255.948,438c-5.522,0-10,4.477-10,10s4.478,10,10,10h84.412c5.522,0,10-4.477,10-10s-4.478-10-10-10H255.948z"/>
<path d="M457.914,400c0-5.523-4.478-10-10-10H256.012c-5.522,0-10,4.477-10,10s4.478,10,10,10h191.902
	C453.437,410,457.914,405.523,457.914,400z"/>
<path d="M447.835,342H255.933c-5.522,0-10,4.477-10,10s4.478,10,10,10h191.902c5.522,0,10-4.477,10-10S453.357,342,447.835,342z"/>
<g>
</g>
<g>
</g>
<g>
</g>
<g>
</g>
<g>
</g>
<g>
</g>
<g>
</g>
<g>
</g>
<g>
</g>
<g>
</g>
<g>
</g>
<g>
</g>
<g>
</g>
<g>
</g>
<g>
</g>
</svg>
